<?xml version="1.0" encoding="iso-8859-1"?>
<!-- Uploaded to: SVG Repo, www.svgrepo.com, Generator: SVG Repo Mixer Tools -->
<!DOCTYPE svg PUBLIC "-//W3C//DTD SVG 1.1//EN" "http://www.w3.org/Graphics/SVG/1.1/DTD/svg11.dtd">
<svg fill="#000000" height="800px" width="800px" version="1.1" id="Capa_1" xmlns="http://www.w3.org/2000/svg" xmlns:xlink="http://www.w3.org/1999/xlink" 
	 viewBox="0 0 481.44 481.44" xml:space="preserve">
<g>
	<path d="M451.234,108.779l0.025-82.667H30.206v82.665L0,435.019l7.95,2.292c2.07,0.598,51.247,14.652,98.045,17.549
		c5.223,0.324,10.422,0.469,15.559,0.469c43.518-0.002,82.097-10.409,83.902-10.904l5.784-1.583l1.327-5.849
		c9.426-41.541,20.641-86.504,28.153-111.728c7.512,25.225,18.727,70.188,28.153,111.728l1.327,5.849l5.784,1.583
		c1.805,0.495,40.38,10.904,83.901,10.904c5.135,0,10.339-0.146,15.559-0.469c46.798-2.896,95.975-16.951,98.045-17.549l7.95-2.292
		L451.234,108.779z M441.483,220.397c-25.18-2.404-44.145-16.8-56.44-42.89c-8.779-18.629-12.85-40.795-13.977-58.268h61.05
		L441.483,220.397z M49.324,119.24h61.05c-1.127,17.473-5.197,39.639-13.977,58.268c-12.295,26.09-31.26,40.485-56.44,42.89
		L49.324,119.24z M117.048,99.24V46.112h46.841V99.24H117.048z M183.89,46.112h46.841V99.24H183.89V46.112z M250.731,46.112h46.842
		V99.24h-46.842V46.112z M317.573,46.112h46.842V99.24h-46.842V46.112z M431.237,99.24h-46.822V46.112h46.838L431.237,99.24z
		 M50.206,46.112h46.842V99.24H50.206V46.112z M374.209,434.899c-36.571,2.263-73.374-5.145-87.214-8.355
		c-2.606-11.293-8.563-36.789-14.956-62.039c-5.024-19.845-9.34-35.69-12.827-47.096c-5.679-18.577-9.081-28.271-18.493-28.271
		c-9.412,0-12.814,9.693-18.493,28.271c-3.487,11.405-7.802,27.251-12.827,47.096c-6.393,25.252-12.35,50.752-14.957,62.044
		c-13.822,3.214-50.552,10.616-87.213,8.351c-33.857-2.097-70.106-10.629-85.776-14.668l16.633-179.645
		c34.096-1.918,60.435-20.674,76.401-54.553c11.719-24.868,15.027-51.512,15.918-66.794h220.626
		c0.891,15.282,4.199,41.926,15.918,66.794c15.966,33.879,42.305,52.635,76.401,54.553l16.633,179.645
		C444.316,424.27,408.066,432.802,374.209,434.899z"/>
	<path d="M282.148,138.152c-5.964,0-12.098,1.437-17.739,4.154c-10.401,5.014-18.248,14.145-23.689,22.536
		c-5.441-8.391-13.289-17.522-23.691-22.537c-5.639-2.717-11.773-4.153-17.737-4.153c-12.129,0-22.538,5.962-27.166,15.561
		c-7.126,14.787,1.421,33.73,19.053,42.23c6.806,3.279,14.917,4.942,24.107,4.942c3.306,0,6.521-0.218,9.532-0.558l-13.437,35.074
		l18.677,7.154l10.662-27.83l10.662,27.83l18.677-7.154l-13.437-35.074c3.011,0.34,6.226,0.558,9.532,0.558c0.001,0,0,0,0,0
		c9.19,0,17.301-1.663,24.108-4.943c17.631-8.498,26.178-27.441,19.051-42.23C304.686,144.114,294.277,138.152,282.148,138.152z
		 M199.862,177.925c-8.227-3.966-11.725-11.368-9.719-15.529c1.262-2.618,4.768-4.244,9.149-4.244c2.977,0,6.107,0.751,9.053,2.17
		c7.746,3.734,14.025,12.264,18.146,19.586c-3.362,0.554-7.228,0.977-11.205,0.977C209.127,180.884,203.938,179.888,199.862,177.925
		z M281.579,177.924c-4.076,1.964-9.265,2.96-15.425,2.96c-3.982,0-7.848-0.422-11.206-0.975
		c4.122-7.326,10.402-15.855,18.145-19.587c2.948-1.42,6.079-2.171,9.055-2.171c4.381,0,7.887,1.626,9.148,4.242
		C293.303,166.557,289.805,173.96,281.579,177.924z"/>
</g>
</svg>