<?xml version="1.0" encoding="iso-8859-1"?>
<!-- Uploaded to: SVG Repo, www.svgrepo.com, Generator: SVG Repo Mixer Tools -->
<svg fill="#000000" height="800px" width="800px" version="1.1" id="Layer_1" xmlns="http://www.w3.org/2000/svg" xmlns:xlink="http://www.w3.org/1999/xlink" 
	 viewBox="0 0 480.242 480.242" xml:space="preserve">
<g>
	<g>
		<g>
			<path d="M373.593,336.537l-22.192,7.4l-96.568-13.8c-9.752-1.392-19.648-1.392-29.416,0l-96.56,13.8l-22.192-7.4
				c-4.216-1.408-8.728,0.864-10.12,5.056c-1.4,4.192,0.864,8.728,5.056,10.12l11.72,3.912l-6.84,6.84
				c-3.128,3.128-3.128,8.184,0,11.312c1.544,1.56,3.592,2.344,5.64,2.344c2.048,0,4.096-0.784,5.656-2.344l9.104-9.104
				l65.088,97.632c7.432,11.16,19.872,17.816,33.28,17.816h29.752c13.408,0,25.84-6.656,33.28-17.816l65.088-97.632l9.104,9.104
				c1.552,1.56,3.6,2.344,5.648,2.344c2.048,0,4.096-0.784,5.656-2.344c3.128-3.128,3.128-8.184,0-11.312l-6.84-6.84l11.72-3.912
				c4.184-1.392,6.456-5.92,5.056-10.12C382.313,337.401,377.809,335.129,373.593,336.537z M274.961,453.433
				c-4.456,6.696-11.928,10.688-19.968,10.688h-29.752c-8.04,0-15.504-3.992-19.968-10.688l-63.464-95.184l85.848-12.264
				c8.264-1.168,16.648-1.168,24.896,0l85.856,12.264L274.961,453.433z"/>
			<path d="M210.465,370.465l-2.344,2.344l-2.344-2.344c-3.128-3.128-8.184-3.128-11.312,0s-3.128,8.184,0,11.312l8,8
				c1.56,1.56,3.608,2.344,5.656,2.344c2.048,0,4.096-0.784,5.656-2.344l8-8c3.128-3.128,3.128-8.184,0-11.312
				C218.649,367.337,213.593,367.337,210.465,370.465z"/>
			<path d="M266.465,389.777c1.552,1.552,3.6,2.344,5.656,2.344c1.896,0,3.8-0.672,5.312-2.016l9.008-8
				c3.304-2.936,3.6-7.992,0.672-11.296c-2.944-3.312-8.008-3.6-11.296-0.672l-3.368,2.992l-2.672-2.664
				c-3.128-3.128-8.184-3.128-11.312,0c-3.128,3.128-3.128,8.184,0,11.312L266.465,389.777z"/>
			<path d="M243.473,426.465l-2.344,2.344l-2.344-2.344c-3.128-3.128-8.184-3.128-11.312,0s-3.128,8.184,0,11.312l8,8
				c1.56,1.56,3.608,2.344,5.656,2.344s4.096-0.784,5.656-2.344l8-8c3.128-3.128,3.128-8.184,0-11.312
				C251.657,423.337,246.601,423.337,243.473,426.465z"/>
			<path d="M298.465,178.465l-2.344,2.344l-2.344-2.344c-3.128-3.128-8.184-3.128-11.312,0c-3.128,3.128-3.128,8.184,0,11.312l8,8
				c1.56,1.56,3.608,2.344,5.656,2.344c2.048,0,4.096-0.784,5.656-2.344l8-8c3.128-3.128,3.128-8.184,0-11.312
				S301.593,175.337,298.465,178.465z"/>
			<path d="M349.777,146.465c-3.128-3.128-8.184-3.128-11.312,0l-2.344,2.344l-2.344-2.344c-3.128-3.128-8.184-3.128-11.312,0
				c-3.128,3.128-3.128,8.184,0,11.312l8,8c1.56,1.56,3.608,2.344,5.656,2.344c2.048,0,4.096-0.784,5.656-2.344l8-8
				C352.905,154.649,352.905,149.593,349.777,146.465z"/>
			<path d="M362.465,194.465l-2.344,2.344l-2.344-2.344c-3.128-3.128-8.184-3.128-11.312,0c-3.128,3.128-3.128,8.184,0,11.312l8,8
				c1.56,1.56,3.608,2.344,5.656,2.344c2.048,0,4.096-0.784,5.656-2.344l8-8c3.128-3.128,3.128-8.184,0-11.312
				S365.593,191.337,362.465,194.465z"/>
			<path d="M187.473,178.465l-2.344,2.344l-2.344-2.344c-3.128-3.128-8.184-3.128-11.312,0s-3.128,8.184,0,11.312l8,8
				c1.56,1.56,3.608,2.344,5.656,2.344s4.096-0.784,5.656-2.344l8-8c3.128-3.128,3.128-8.184,0-11.312
				S190.601,175.337,187.473,178.465z"/>
			<path d="M147.473,146.465l-2.344,2.344l-2.344-2.344c-3.128-3.128-8.184-3.128-11.312,0s-3.128,8.184,0,11.312l8,8
				c1.56,1.56,3.608,2.344,5.656,2.344s4.096-0.784,5.656-2.344l8-8c3.128-3.128,3.128-8.184,0-11.312
				S150.601,143.337,147.473,146.465z"/>
			<path d="M123.473,194.465l-2.344,2.344l-2.344-2.344c-3.128-3.128-8.184-3.128-11.312,0c-3.128,3.128-3.128,8.184,0,11.312l8,8
				c1.56,1.56,3.608,2.344,5.656,2.344s4.096-0.784,5.656-2.344l8-8c3.128-3.128,3.128-8.184,0-11.312
				S126.601,191.337,123.473,194.465z"/>
			<path d="M472.377,192.721c-10.256-0.272-15.16,6.488-18.584,10.888c-3.104,3.992-3.984,4.768-5.688,4.704
				c-1.688-0.024-2.56-0.808-5.52-4.888c-3.272-4.512-8.216-11.336-18.216-11.504c-9.056,0.176-14.168,5.544-17.568,9.96
				c-4.712-27.128-19.184-73.784-63.16-110.648c-6-12.312-46.616-91.112-103.52-91.112c-56.4,0-95.944,77.352-102.392,90.8
				c-46.688,33.768-60.248,82.616-64.104,110.944c-3.376-4.264-8.376-9.744-17.384-9.744c-0.128,0-0.24,0-0.36,0
				c-10,0-14.944,6.816-18.216,11.328c-2.96,4.088-3.832,4.688-5.52,4.712c-1.632,0.016-2.584-0.864-5.688-4.856
				c-3.392-4.344-8.472-11.184-18.224-11.184c-0.12,0-0.24,0-0.368,0c-4.424,0-7.936,3.72-7.864,8.136
				c0.08,4.376,3.64,7.864,8,7.864c0.048,0,0.088,0,0.136,0c1.672,0,2.584,0.912,5.68,4.904c3.376,4.352,8.456,11.096,18.208,11.096
				c0.128,0,0.248,0,0.376,0c10,0,14.944-6.816,18.216-11.336c2.96-4.088,3.832-4.688,5.52-4.72c1.32,0.104,2.568,0.872,5.664,4.856
				c2.304,2.976,5.456,7.08,10.312,9.4c0,1.088,0.024,1.832,0.032,2.096c0.12,3.176,2.112,5.992,5.08,7.16
				c24.192,9.472,49.024,12.616,71.376,12.616c43.176,0,77.08-11.784,79.2-12.528c3.2-1.136,5.256-4.168,5.256-7.536h15.12
				c0,3.368,2.056,6.4,5.256,7.536c2.128,0.752,36.016,12.528,79.2,12.528c22.344,0,47.176-3.16,71.376-12.616
				c3.072-1.2,5.088-4.16,5.088-7.456c0-0.248-0.016-1.072-0.056-2.152c4.464-2.384,7.384-6.272,9.56-9.216
				c3.008-4.064,3.896-4.76,5.488-4.88c1.688,0.032,2.56,0.752,5.52,4.84c3.288,4.512,8.232,11.408,18.232,11.408
				c0.128,0,0.248,0,0.368,0c9.768,0,14.84-6.744,18.224-11.096c3.04-3.912,3.96-4.904,5.584-4.904c0.08,0,0.152,0,0.224,0
				c4.36,0,7.92-3.192,8-7.568C480.313,196.137,476.801,192.801,472.377,192.721z M88.233,218.585
				c0.792-17.672,7.224-75.92,56.832-113.24c14.448,7.168,63.456,36.816,71.232,109.896c-0.032,0.304-0.176,0.568-0.176,0.88
				c0,0.808,0.24,1.544,0.464,2.28C198.457,223.625,141.425,237.153,88.233,218.585z M249.705,208.121h-18.16
				c-9.848-73.032-57.584-105.52-76.64-115.68c10.512-20.024,43.752-76.32,85.216-76.32c41.496,0,75.384,56.304,86.144,76.36
				C307.153,102.705,259.537,135.209,249.705,208.121z M264.553,218.369c6.6-74.856,56.208-105.288,71.272-112.856
				c44.016,38.384,54.208,88.656,56.568,109.224c-0.08,0.424-0.264,0.808-0.272,1.256c-0.016,0.96,0.208,1.864,0.504,2.72
				C339.441,237.105,282.505,223.561,264.553,218.369z"/>
		</g>
	</g>
</g>
</svg>