<?xml version="1.0" standalone="no"?>
<!DOCTYPE svg PUBLIC "-//W3C//DTD SVG 20010904//EN"
 "http://www.w3.org/TR/2001/REC-SVG-20010904/DTD/svg10.dtd">
<svg version="1.0" xmlns="http://www.w3.org/2000/svg"
 viewBox="0 0 2600.000000 2600.000000"
 preserveAspectRatio="xMidYMid meet">
<metadata>
Created by potrace 1.15, written by Peter Selinger 2001-2017
</metadata>
<g transform="translate(0.000000,2600.000000) scale(0.100000,-0.100000)"
fill="#000000" stroke="none">
<path d="M8500 23535 c-285 -41 -518 -160 -712 -363 -121 -127 -220 -293 -274
-460 -25 -78 -25 -79 -72 -95 -29 -11 -258 -172 -602 -423 -410 -299 -577
-416 -639 -445 -68 -32 -98 -54 -165 -121 -45 -46 -102 -100 -127 -120 -57
-45 -113 -128 -143 -211 -19 -53 -346 -501 -2011 -2756 -1270 -1721 -2000
-2718 -2021 -2761 -18 -37 -38 -87 -44 -111 -16 -58 -16 -169 0 -244 17 -84
2324 -6198 2363 -6264 95 -160 301 -259 482 -232 40 6 272 74 514 151 243 77
444 140 447 140 3 0 4 -181 2 -403 -3 -402 -3 -402 20 -457 57 -133 165 -239
297 -291 l60 -24 3583 -3 3582 -2 0 -34 c0 -18 -56 -1503 -125 -3300 -115
-3000 -124 -3272 -111 -3335 33 -159 150 -298 306 -363 l55 -23 1995 -3 c1502
-2 2009 0 2050 9 168 36 321 183 366 354 8 28 14 101 14 165 0 63 9 257 20
430 35 549 78 1110 216 2865 15 187 30 343 33 347 7 8 53 -547 151 -1817 75
-966 109 -1468 119 -1748 7 -188 11 -231 29 -281 53 -147 171 -260 320 -306
63 -20 97 -20 2052 -20 1952 0 1989 0 2051 20 174 54 311 212 341 392 8 50
-52 1687 -281 7673 -160 4186 -293 7628 -296 7650 -24 172 -149 331 -312 397
l-58 23 -1295 5 -1295 5 -1427 2080 c-1021 1489 -1442 2094 -1479 2128 -28 26
-73 59 -100 72 -52 27 -155 55 -202 55 -17 0 -45 13 -68 33 -22 17 -381 264
-796 547 -416 283 -759 522 -764 530 -4 8 -21 59 -38 112 -131 421 -453 713
-906 821 l-90 21 -2460 2 c-2020 2 -2477 0 -2555 -11z m198 -1050 c19 -89 78
-266 124 -369 219 -499 639 -913 1166 -1153 53 -24 96 -48 94 -53 -4 -16 -542
-660 -552 -660 -15 0 -232 235 -335 363 -376 469 -642 985 -710 1381 -10 57
-15 151 -15 265 0 198 -2 191 84 255 41 31 56 37 90 34 l41 -3 13 -60z m3580
18 c-110 -249 -363 -499 -629 -622 -99 -45 -241 -92 -359 -117 -130 -28 -439
-26 -577 4 -188 41 -377 120 -527 220 -96 64 -250 214 -318 308 -59 83 -138
220 -138 242 0 9 263 12 1284 12 l1285 0 -21 -47z m1185 16 c26 -17 59 -45 73
-62 l27 -32 -6 -177 c-11 -311 -74 -543 -242 -883 -134 -272 -258 -463 -476
-735 -154 -191 -328 -382 -346 -378 -8 2 -138 151 -288 333 l-274 330 137 65
c168 81 250 128 372 216 312 222 553 501 718 830 72 145 126 295 172 482 10
40 12 42 49 42 25 0 53 -10 84 -31z m-5830 -1158 c166 -494 464 -996 877
-1481 149 -174 352 -381 424 -432 312 -220 698 -255 1032 -93 170 82 274 173
459 403 50 61 93 111 98 112 4 0 6 -2438 5 -5417 l-3 -5418 -2012 -3 -2013 -2
0 168 c0 93 3 209 6 258 l7 89 396 125 c218 69 426 140 464 158 118 59 209
166 249 295 17 56 19 86 16 170 l-5 102 -565 1575 -566 1575 18 31 c34 60 59
143 65 216 3 40 34 1623 70 3518 36 1895 69 3474 73 3510 l7 64 420 308 c231
169 423 307 426 308 3 0 27 -63 52 -139z m7256 -216 l411 -280 0 -106 c0 -58
52 -2713 115 -5900 63 -3187 115 -5802 115 -5811 0 -17 -74 -18 -1415 -18
l-1415 0 0 5123 0 5123 68 17 c86 23 237 95 316 151 167 120 558 568 798 916
215 312 442 765 523 1043 l17 58 28 -18 c15 -10 213 -144 439 -298z m-3442
-1208 c176 -210 344 -403 374 -428 118 -101 248 -171 394 -214 l80 -23 3
-5121 2 -5121 -587 2 -588 3 -3 5643 c-1 3103 0 5642 2 5642 2 0 148 -172 323
-383z m6967 -3134 c1125 -1641 2046 -2987 2046 -2992 0 -10 -1649 -1146 -1654
-1139 -2 1 -547 795 -1212 1763 l-1208 1760 -3 60 c-2 33 -17 755 -33 1605
-16 850 -32 1649 -36 1775 l-6 230 30 -40 c16 -22 950 -1382 2076 -3022z
m-12744 932 c-17 -929 -34 -1704 -36 -1722 -3 -23 -127 -197 -419 -590 -228
-307 -429 -586 -447 -621 -104 -209 15 -483 239 -548 51 -15 141 -22 172 -13
11 3 123 -297 453 -1216 240 -671 438 -1223 438 -1226 0 -3 -345 -115 -767
-249 -423 -134 -815 -259 -872 -277 -56 -19 -105 -32 -107 -30 -2 2 -362 953
-799 2113 -543 1438 -793 2114 -788 2125 4 9 672 916 1483 2015 1381 1870
1475 1995 1479 1963 2 -19 -11 -794 -29 -1724z m15704 -1617 c6 -39 78 -1970
74 -1973 -2 -2 -596 861 -1281 1862 l-98 143 650 0 650 0 5 -32z m-3664 -3608
c700 -1020 1289 -1875 1309 -1900 135 -161 384 -215 578 -126 28 14 475 315
993 671 518 355 944 644 946 642 3 -3 324 -8300 324 -8385 l0 -22 -42 22 -43
23 -1386 3 -1387 2 -6 68 c-4 37 -31 380 -61 762 -133 1679 -341 4137 -480
5685 -96 1060 -100 1090 -157 1198 -91 170 -273 267 -475 255 -171 -11 -302
-93 -394 -249 -49 -81 -62 -142 -88 -404 -88 -870 -408 -4613 -581 -6809 -22
-280 -41 -510 -43 -510 -1 -1 -645 0 -1430 2 l-1428 2 6 93 c3 50 41 1053 85
2227 44 1174 83 2168 86 2208 l6 72 1023 0 c707 0 1040 3 1077 11 170 35 317
170 368 337 17 53 20 93 20 231 0 91 -25 1410 -55 2931 -63 3166 -58 2837 -46
2825 5 -6 581 -845 1281 -1865z m3295 517 c97 -142 175 -260 173 -261 -4 -4
-1637 -1124 -1649 -1131 -7 -5 -383 534 -377 540 2 2 374 258 828 569 650 447
827 564 836 554 6 -7 91 -129 189 -271z m-14620 -2104 c61 -169 111 -314 113
-323 2 -12 -184 -74 -859 -288 -473 -151 -862 -272 -863 -270 -2 1 -57 144
-122 317 -94 250 -115 316 -104 320 20 7 1714 549 1720 550 3 1 55 -137 115
-306z m15510 -8424 c8 -217 16 -424 18 -462 l3 -67 -1405 2 -1406 3 -21 325
c-12 179 -25 373 -29 432 l-8 108 1364 2 1365 3 49 26 c28 14 51 25 53 24 1
-1 9 -179 17 -396z m-5236 114 c-9 -126 -23 -321 -30 -435 l-13 -208 -1403 0
-1403 0 0 73 c0 50 26 745 30 795 0 1 638 2 1418 2 l1417 0 -16 -227z"/>
<path d="M11543 18395 c-157 -43 -287 -166 -335 -317 -23 -75 -24 -204 -2
-279 45 -154 169 -278 323 -323 79 -23 207 -21 283 5 239 80 371 321 313 568
-60 253 -330 414 -582 346z"/>
<path d="M11520 14631 c-151 -48 -270 -169 -314 -320 -22 -75 -21 -204 3 -280
104 -336 541 -442 791 -192 250 250 148 677 -188 790 -79 27 -213 28 -292 2z"/>
<path d="M11575 10890 c-104 -22 -208 -81 -271 -154 -19 -22 -52 -75 -72 -115
-37 -74 -37 -76 -37 -201 0 -125 0 -127 37 -201 45 -91 91 -146 160 -192 202
-133 455 -105 616 68 139 148 171 351 84 534 -35 74 -128 171 -200 209 -100
53 -216 72 -317 52z"/>
</g>
</svg>
