<?xml version="1.0" encoding="utf-8"?>
<!-- Uploaded to: SVG Repo, www.svgrepo.com, Generator: SVG Repo Mixer Tools -->
<svg width="800px" height="800px" viewBox="-12.29 0 61.851 61.851" xmlns="http://www.w3.org/2000/svg">
  <g id="Dress" transform="translate(-449.183 -367.674)">
    <g id="Group_245" data-name="Group 245">
      <path id="Path_164" data-name="Path 164" d="M450.183,426.025a1,1,0,0,1-1-1v-5.75c0-2.775,1.26-7.523,2.72-13.021,1.587-5.98,3.386-12.756,3.386-16.908,0-7.64-4.953-19.769-5-19.891a1,1,0,0,1,1.131-1.359c.036.008,3.645.744,6.186-.341a1,1,0,0,1,1.173.295c.049.061,4.955,6.117,9.2,6.117a1,1,0,0,1,0,2c-4.385,0-8.857-4.668-10.3-6.312a13.29,13.29,0,0,1-4.923.436c1.378,3.633,4.527,12.64,4.527,19.055,0,4.413-1.756,11.025-3.453,17.421-1.364,5.139-2.653,9.995-2.653,12.508v5.75A1,1,0,0,1,450.183,426.025Z" fill="#231f20"/>
    </g>
    <g id="Group_246" data-name="Group 246">
      <path id="Path_165" data-name="Path 165" d="M485.458,426.025a1,1,0,0,1-1-1v-5.75c0-2.513-1.289-7.369-2.653-12.508-1.7-6.4-3.453-13.008-3.453-17.421,0-6.415,3.149-15.422,4.526-19.055a13.285,13.285,0,0,1-4.9-.429c-1.388,1.675-5.62,6.3-10,6.3a1,1,0,0,1,0-2c3.518,0,7.591-4.4,8.863-6.092a1,1,0,0,1,1.193-.32c2.542,1.086,6.151.35,6.186.341a1,1,0,0,1,1.131,1.359c-.05.122-5,12.251-5,19.891,0,4.152,1.8,10.928,3.386,16.908,1.459,5.5,2.72,10.246,2.72,13.021v5.75A1,1,0,0,1,485.458,426.025Z" fill="#231f20"/>
    </g>
    <g id="Group_247" data-name="Group 247">
      <path id="Path_166" data-name="Path 166" d="M467.817,399.349a16.6,16.6,0,0,1-11.772-4.869.5.5,0,0,1,.707-.707,15.667,15.667,0,0,0,22.129,0,.5.5,0,0,1,.707.707A16.592,16.592,0,0,1,467.817,399.349Z" fill="#231f20"/>
    </g>
    <g id="Group_248" data-name="Group 248">
      <path id="Path_167" data-name="Path 167" d="M453.683,429.525a4.5,4.5,0,0,1-4.5-4.5,1,1,0,0,1,2,0,2.5,2.5,0,0,0,5,0,1,1,0,0,1,2,0A4.5,4.5,0,0,1,453.683,429.525Z" fill="#231f20"/>
    </g>
    <g id="Group_249" data-name="Group 249">
      <path id="Path_168" data-name="Path 168" d="M460.683,429.525a4.5,4.5,0,0,1-4.5-4.5,1,1,0,0,1,2,0,2.5,2.5,0,0,0,5,0,1,1,0,0,1,2,0A4.5,4.5,0,0,1,460.683,429.525Z" fill="#231f20"/>
    </g>
    <g id="Group_250" data-name="Group 250">
      <path id="Path_169" data-name="Path 169" d="M467.958,429.525a4.5,4.5,0,0,1-4.5-4.5,1,1,0,0,1,2,0,2.5,2.5,0,0,0,5,0,1,1,0,0,1,2,0A4.5,4.5,0,0,1,467.958,429.525Z" fill="#231f20"/>
    </g>
    <g id="Group_251" data-name="Group 251">
      <path id="Path_170" data-name="Path 170" d="M474.958,429.525a4.5,4.5,0,0,1-4.5-4.5,1,1,0,0,1,2,0,2.5,2.5,0,0,0,5,0,1,1,0,0,1,2,0A4.5,4.5,0,0,1,474.958,429.525Z" fill="#231f20"/>
    </g>
    <g id="Group_252" data-name="Group 252">
      <path id="Path_171" data-name="Path 171" d="M481.958,429.525a4.5,4.5,0,0,1-4.5-4.5,1,1,0,0,1,2,0,2.5,2.5,0,0,0,5,0,1,1,0,0,1,2,0A4.5,4.5,0,0,1,481.958,429.525Z" fill="#231f20"/>
    </g>
  </g>
</svg>